name C:/MyDriveSym/Projects/mobilecap/Data\Session20210816_0002\mocap\ForceDataProcessed\walkingTS3_forces.mot
datacolumns 19
datarows 29
range 0.84950000 0.86350000
endheader 
time	R_ground_force_vx	R_ground_force_vy	R_ground_force_vz	R_ground_force_px	R_ground_force_py	R_ground_force_pz	R_ground_torque_x	R_ground_torque_y	R_ground_torque_z	L_ground_force_vx	L_ground_force_vy	L_ground_force_vz	L_ground_force_px	L_ground_force_py	L_ground_force_pz	L_ground_torque_x	L_ground_torque_y	L_ground_torque_z	
          0.84950000	         46.65224700	        149.78164000	         -1.07650700	          0.34750900	          0.00600000	         -0.15709700	          0.00000000	          1.67312900	          0.00000000	        -85.84843700	        507.13050900	         17.43273800	          0.87293600	          0.00600000	         -0.28968900	          0.00000000	          1.02675800	          0.00000000	
          0.85000000	         46.29798400	        148.46179500	         -1.04772100	          0.34769800	          0.00600000	         -0.15706600	          0.00000000	          1.66108800	          0.00000000	        -85.77667600	        507.62495600	         17.43798700	          0.87315000	          0.00600000	         -0.28961500	          0.00000000	          1.03040000	          0.00000000	
          0.85050000	         45.94409300	        147.14651100	         -1.01926100	          0.34788700	          0.00600000	         -0.15703500	          0.00000000	          1.64904000	          0.00000000	        -85.70386800	        508.11727600	         17.44317000	          0.87336400	          0.00600000	         -0.28954200	          0.00000000	          1.03408700	          0.00000000	
          0.85100000	         45.59059000	        145.83581900	         -0.99112900	          0.34807700	          0.00600000	         -0.15700300	          0.00000000	          1.63698600	          0.00000000	        -85.63003000	        508.60750800	         17.44829900	          0.87357700	          0.00600000	         -0.28946800	          0.00000000	          1.03782100	          0.00000000	
          0.85150000	         45.23749500	        144.52975300	         -0.96332500	          0.34826800	          0.00600000	         -0.15697200	          0.00000000	          1.62492600	          0.00000000	        -85.55517600	        509.09569100	         17.45339200	          0.87378900	          0.00600000	         -0.28939500	          0.00000000	          1.04159900	          0.00000000	
          0.85200000	         44.88482500	        143.22834300	         -0.93585000	          0.34846000	          0.00600000	         -0.15694000	          0.00000000	          1.61286400	          0.00000000	        -85.47932200	        509.58186500	         17.45846200	          0.87400200	          0.00600000	         -0.28932100	          0.00000000	          1.04542200	          0.00000000	
          0.85250000	         44.53259800	        141.93162300	         -0.90870300	          0.34865300	          0.00600000	         -0.15690800	          0.00000000	          1.60079900	          0.00000000	        -85.40248600	        510.06606900	         17.46352400	          0.87421400	          0.00600000	         -0.28924800	          0.00000000	          1.04928800	          0.00000000	
          0.85300000	         44.18083200	        140.63962400	         -0.88188600	          0.34884700	          0.00600000	         -0.15687500	          0.00000000	          1.58873400	          0.00000000	        -85.32468100	        510.54834400	         17.46859200	          0.87442500	          0.00600000	         -0.28917500	          0.00000000	          1.05319700	          0.00000000	
          0.85350000	         43.82954600	        139.35237800	         -0.85539700	          0.34904100	          0.00600000	         -0.15684300	          0.00000000	          1.57667000	          0.00000000	        -85.24592500	        511.02872900	         17.47368000	          0.87463700	          0.00600000	         -0.28910200	          0.00000000	          1.05714700	          0.00000000	
          0.85400000	         43.47875600	        138.06991500	         -0.82923900	          0.34923700	          0.00600000	         -0.15681000	          0.00000000	          1.56460700	          0.00000000	        -85.16623200	        511.50726600	         17.47880300	          0.87484800	          0.00600000	         -0.28902900	          0.00000000	          1.06113900	          0.00000000	
          0.85450000	         43.12848200	        136.79226800	         -0.80341000	          0.34943300	          0.00600000	         -0.15677700	          0.00000000	          1.55254900	          0.00000000	        -85.08561800	        511.98399500	         17.48397200	          0.87505800	          0.00600000	         -0.28895600	          0.00000000	          1.06517000	          0.00000000	
          0.85500000	         42.77874000	        135.51946800	         -0.77791000	          0.34963100	          0.00600000	         -0.15674400	          0.00000000	          1.54049500	          0.00000000	        -85.00409800	        512.45895800	         17.48920200	          0.87526800	          0.00600000	         -0.28888300	          0.00000000	          1.06924100	          0.00000000	
          0.85550000	         42.42954900	        134.25154400	         -0.75274000	          0.34982900	          0.00600000	         -0.15671100	          0.00000000	          1.52844800	          0.00000000	        -84.92168800	        512.93219600	         17.49450500	          0.87547800	          0.00600000	         -0.28881100	          0.00000000	          1.07335000	          0.00000000	
          0.85600000	         42.08092600	        132.98852700	         -0.72789900	          0.35002800	          0.00600000	         -0.15667700	          0.00000000	          1.51640800	          0.00000000	        -84.83840300	        513.40375000	         17.49989500	          0.87568700	          0.00600000	         -0.28873800	          0.00000000	          1.07749700	          0.00000000	
          0.85650000	         41.73288900	        131.73044800	         -0.70338700	          0.35022900	          0.00600000	         -0.15664300	          0.00000000	          1.50437600	          0.00000000	        -84.75425800	        513.87366300	         17.50538300	          0.87589700	          0.00600000	         -0.28866600	          0.00000000	          1.08168100	          0.00000000	
          0.85700000	         41.38545600	        130.47733600	         -0.67920400	          0.35043000	          0.00600000	         -0.15660900	          0.00000000	          1.49235500	          0.00000000	        -84.66926900	        514.34197600	         17.51098100	          0.87610500	          0.00600000	         -0.28859400	          0.00000000	          1.08590100	          0.00000000	
          0.85750000	         41.03864400	        129.22922200	         -0.65534900	          0.35063300	          0.00600000	         -0.15657400	          0.00000000	          1.48034600	          0.00000000	        -84.58344900	        514.80873200	         17.51670300	          0.87631300	          0.00600000	         -0.28852200	          0.00000000	          1.09015600	          0.00000000	
          0.85800000	         40.69247000	        127.98613400	         -0.63182200	          0.35083600	          0.00600000	         -0.15654000	          0.00000000	          1.46834900	          0.00000000	        -84.49681500	        515.27397400	         17.52255800	          0.87652100	          0.00600000	         -0.28845000	          0.00000000	          1.09444600	          0.00000000	
          0.85850000	         40.34695200	        126.74810200	         -0.60862200	          0.35104100	          0.00600000	         -0.15650500	          0.00000000	          1.45636600	          0.00000000	        -84.40938000	        515.73774400	         17.52855900	          0.87672900	          0.00600000	         -0.28837800	          0.00000000	          1.09876900	          0.00000000	
          0.85900000	         40.00210800	        125.51515500	         -0.58574900	          0.35124700	          0.00600000	         -0.15647000	          0.00000000	          1.44439800	          0.00000000	        -84.32115900	        516.20008400	         17.53471700	          0.87693600	          0.00600000	         -0.28830600	          0.00000000	          1.10312600	          0.00000000	
          0.85950000	         39.65795500	        124.28732100	         -0.56320200	          0.35145400	          0.00600000	         -0.15643400	          0.00000000	          1.43244600	          0.00000000	        -84.23216700	        516.66103900	         17.54104100	          0.87714300	          0.00600000	         -0.28823500	          0.00000000	          1.10751400	          0.00000000	
          0.86000000	         39.31450900	        123.06462800	         -0.54098000	          0.35166200	          0.00600000	         -0.15639800	          0.00000000	          1.42051200	          0.00000000	        -84.14241800	        517.12065000	         17.54754400	          0.87734900	          0.00600000	         -0.28816300	          0.00000000	          1.11193400	          0.00000000	
          0.86050000	         38.97179000	        121.84710500	         -0.51908200	          0.35187100	          0.00600000	         -0.15636200	          0.00000000	          1.40859600	          0.00000000	        -84.05192500	        517.57896200	         17.55423400	          0.87755500	          0.00600000	         -0.28809200	          0.00000000	          1.11638500	          0.00000000	
          0.86100000	         38.62981200	        120.63478000	         -0.49750700	          0.35208200	          0.00600000	         -0.15632600	          0.00000000	          1.39670100	          0.00000000	        -83.96070300	        518.03601700	         17.56112200	          0.87776100	          0.00600000	         -0.28802100	          0.00000000	          1.12086500	          0.00000000	
          0.86150000	         38.28859500	        119.42768000	         -0.47625600	          0.35229300	          0.00600000	         -0.15628900	          0.00000000	          1.38482700	          0.00000000	        -83.86876600	        518.49185900	         17.56821700	          0.87796600	          0.00600000	         -0.28795000	          0.00000000	          1.12537400	          0.00000000	
          0.86200000	         37.94815400	        118.22583100	         -0.45532500	          0.35250600	          0.00600000	         -0.15625200	          0.00000000	          1.37297400	          0.00000000	        -83.77612700	        518.94653100	         17.57552900	          0.87817000	          0.00600000	         -0.28787900	          0.00000000	          1.12991200	          0.00000000	
          0.86250000	         37.60850700	        117.02926200	         -0.43471500	          0.35272100	          0.00600000	         -0.15621400	          0.00000000	          1.36114500	          0.00000000	        -83.68279900	        519.40007800	         17.58306700	          0.87837500	          0.00600000	         -0.28780900	          0.00000000	          1.13447800	          0.00000000	
          0.86300000	         37.26967100	        115.83799900	         -0.41442400	          0.35293600	          0.00600000	         -0.15617600	          0.00000000	          1.34934100	          0.00000000	        -83.58879600	        519.85254200	         17.59083900	          0.87857900	          0.00600000	         -0.28773900	          0.00000000	          1.13907000	          0.00000000	
          0.86350000	         36.93166300	        114.65206900	         -0.39445100	          0.35315300	          0.00600000	         -0.15613800	          0.00000000	          1.33756200	          0.00000000	        -83.49413200	        520.30396700	         17.59885300	          0.87878200	          0.00600000	         -0.28766800	          0.00000000	          1.14368800	          0.00000000	
